<mxfile host="app.diagrams.net" modified="2024-04-09T09:40:52.030Z" agent="Mozilla/5.0 (Windows NT 10.0; Win64; x64) AppleWebKit/537.36 (KHTML, like Gecko) Chrome/123.0.0.0 Safari/537.36 Edg/123.0.0.0" etag="OZX2RqXeCwXsklMGw8eh" version="24.2.1" type="device">
  <diagram name="ページ1" id="pPcCfFQHJ2AjLAdWsQnE">
    <mxGraphModel dx="872" dy="563" grid="1" gridSize="10" guides="1" tooltips="1" connect="1" arrows="1" fold="1" page="1" pageScale="1" pageWidth="1169" pageHeight="827" math="0" shadow="0">
      <root>
        <mxCell id="0" />
        <mxCell id="1" parent="0" />
        <mxCell id="KoZFDpPJRpQVCISqy135-1" value="" style="swimlane;startSize=0;" vertex="1" parent="1">
          <mxGeometry x="120" y="50" width="520" height="500" as="geometry" />
        </mxCell>
        <mxCell id="KoZFDpPJRpQVCISqy135-2" value="x7095110" style="rounded=0;whiteSpace=wrap;html=1;" vertex="1" parent="KoZFDpPJRpQVCISqy135-1">
          <mxGeometry y="220" width="250" height="50" as="geometry" />
        </mxCell>
        <mxCell id="KoZFDpPJRpQVCISqy135-3" value="+45450721" style="rounded=0;whiteSpace=wrap;html=1;" vertex="1" parent="KoZFDpPJRpQVCISqy135-1">
          <mxGeometry x="250" y="220" width="250" height="50" as="geometry" />
        </mxCell>
        <mxCell id="KoZFDpPJRpQVCISqy135-5" value="プレイヤー&lt;div&gt;4545&lt;/div&gt;" style="ellipse;whiteSpace=wrap;html=1;aspect=fixed;" vertex="1" parent="KoZFDpPJRpQVCISqy135-1">
          <mxGeometry x="300" y="50" width="100" height="100" as="geometry" />
        </mxCell>
        <mxCell id="KoZFDpPJRpQVCISqy135-6" value="プレイヤー&lt;div&gt;r=sqrt 37*c&lt;/div&gt;&lt;div&gt;&lt;span style=&quot;color: rgba(0, 0, 0, 0); font-family: monospace; font-size: 0px; text-align: start; text-wrap: nowrap;&quot;&gt;%3dCmx102GraphModel%3E%3Croot%3E%3CmxCell%20id%3D%220%22%2F%3E%3CmxCell%20id%3D%221%22%20parent%3D%220%22%2F%3E%3CmxCell%20id%3D%222%22%20value%3D%22%E3%83%97%E3%83%AC%E3%82%A4%E3%83%A4%E3%83%BC%26lt%3Bdiv%26gt%3B4545%26lt%3B%2Fdiv%26gt%3B%22%20style%3D%22ellipse%3BwhiteSpace%3Dwrap%3Bhtml%3D1%3Baspect%3Dfixed%3B%22%20vertex%3D%221%22%20parent%3D%221%22%3E%3CmxGeometry%20x%3D%22320%22%20y%3D%22440%22%20width%3D%22100%22%20height%3D%22100%22%20as%3D%22geometry%22%2F%3E%3C%2FmxCell%3E%3C%2Froot%3E%3C%2FmxGraphModel%3E1dd&lt;/span&gt;&lt;br&gt;&lt;/div&gt;" style="ellipse;whiteSpace=wrap;html=1;aspect=fixed;" vertex="1" parent="KoZFDpPJRpQVCISqy135-1">
          <mxGeometry x="210" y="355" width="100" height="100" as="geometry" />
        </mxCell>
        <mxCell id="KoZFDpPJRpQVCISqy135-11" value="プレイヤY座標：固定 350?" style="text;html=1;whiteSpace=wrap;overflow=hidden;rounded=0;fontFamily=Helvetica;fontSize=12;fontColor=default;" vertex="1" parent="KoZFDpPJRpQVCISqy135-1">
          <mxGeometry x="340" y="355" width="180" height="120" as="geometry" />
        </mxCell>
      </root>
    </mxGraphModel>
  </diagram>
</mxfile>
